<svg xmlns="http://www.w3.org/2000/svg" width="82" height="50" viewBox="0 0 82 50" fill="none">
  <path d="M60.0703 27.5769C59.8837 28.1265 59.7073 28.6555 59.6866 28.7384C59.6659 28.8214 59.6451 28.9044 59.6347 28.9148C59.614 28.9355 59.6036 28.977 59.5829 29.0185C59.5725 29.0703 59.531 29.174 59.4999 29.257C59.4584 29.34 59.0643 30.5327 58.6184 31.8913L57.8198 34.3804L56.4715 31.1861L55.1232 28.0021L54.5528 28.0643C54.2417 28.1058 53.972 28.1473 53.972 28.1473C53.9617 28.1576 53.7128 29.9622 53.4224 32.161C53.1216 34.3597 52.8208 36.6206 52.7379 37.191C52.6549 37.7614 52.5201 38.7363 52.4371 39.369C52.3541 39.9913 52.2089 41.101 52.1052 41.8373L51.9289 43.1545H25.9593H0V43.5693V43.9842H26.3223C40.7902 43.9842 52.7379 43.9531 52.8623 43.922C53.0075 43.8805 53.132 43.7353 53.1942 43.5279C53.246 43.3515 53.692 42.0344 54.1898 40.6135C54.6877 39.1823 55.2373 37.5955 55.4136 37.0666C55.59 36.548 55.7663 36.1331 55.7974 36.1539C55.8389 36.1746 56.4611 37.5022 57.1975 39.1097L58.5354 42.0344L58.9917 41.9618C59.697 41.8581 59.7073 41.8373 59.7799 41.1528C59.8214 40.8002 59.9874 39.3897 60.1533 38.0207C60.8378 32.4928 61.2941 28.7488 61.3667 28.0643L61.4497 27.3383L71.3854 27.3072L81.3107 27.2865V26.9235V26.5605H70.8668L60.4126 26.5708L60.0703 27.5769Z" fill="#F4C402"/>
  <path d="M41.8181 1.56558C41.8181 1.76264 41.8388 1.84561 41.8699 1.74189C41.8907 1.64855 41.8907 1.48261 41.8699 1.3789C41.8388 1.28556 41.8181 1.36853 41.8181 1.56558Z" fill="#373435"/>
  <path d="M60.9517 22.5883C60.9206 22.6402 60.8687 22.9928 60.8376 23.3973C60.7961 23.7914 60.7235 24.4033 60.6717 24.7455C60.5265 25.6686 60.5369 25.8553 60.7443 25.8138C60.8999 25.7827 60.9621 25.5441 61.1073 24.4862C61.3251 22.8165 61.3354 22.5157 61.1488 22.5157C61.0658 22.5157 60.9725 22.5468 60.9517 22.5883Z" fill="#373435"/>
  <path d="M61.7716 22.7441C61.6264 23.4805 61.3878 25.7518 61.4397 25.814C61.5641 25.9385 61.8649 25.6688 61.8856 25.4095C61.9064 25.0673 61.9997 24.2065 62.0723 23.7086C62.2072 22.7752 62.1864 22.5159 61.9997 22.5159C61.896 22.5159 61.8027 22.6197 61.7716 22.7441Z" fill="#373435"/>
  <path d="M62.2906 22.6808C62.1973 22.9297 62.1973 22.9297 62.6743 22.9297H63.1099L62.944 24.2987C62.8506 25.0558 62.7884 25.7196 62.8195 25.7611C62.9129 25.9166 63.1929 25.7818 63.2136 25.5744C63.2344 25.4603 63.2759 25.1388 63.3174 24.8484C63.3588 24.5684 63.4003 24.2365 63.4211 24.1224C63.5663 22.9401 63.5663 22.9401 64.0226 22.909C64.3337 22.8882 64.4686 22.826 64.4893 22.6912C64.5204 22.5356 64.4167 22.5149 63.4418 22.5149C62.5499 22.5149 62.3425 22.546 62.2906 22.6808Z" fill="#373435"/>
  <path d="M65.547 22.6926C65.547 22.7963 65.4744 23.3875 65.3914 24.0201C65.184 25.5654 65.184 25.8558 65.4226 25.8143C65.5574 25.7936 65.6196 25.6277 65.6922 25.1298C65.7856 24.4868 65.7856 24.4868 66.1278 24.4868C66.3249 24.4868 66.4804 24.5283 66.4804 24.5905C66.4804 24.6424 66.5738 24.9432 66.6982 25.2647C66.8538 25.6795 66.9575 25.8351 67.1131 25.8351C67.362 25.8351 67.362 25.7625 67.1131 25.0676L66.916 24.5076L67.2064 24.3001C67.4138 24.1446 67.5072 23.9683 67.5487 23.6053C67.5902 23.3356 67.5694 23.0348 67.5176 22.9311C67.3827 22.6718 66.8745 22.5163 66.1589 22.5163C65.6507 22.5163 65.547 22.5474 65.547 22.6926ZM66.9782 23.0556C67.0508 23.1282 67.1027 23.3252 67.1027 23.5015C67.1027 23.9475 66.9368 24.072 66.356 24.072C65.8063 24.072 65.8063 24.0616 65.9204 23.3149C65.9826 22.9415 66.0034 22.9311 66.4182 22.9311C66.6567 22.9311 66.9057 22.983 66.9782 23.0556Z" fill="#373435"/>
  <path d="M68.2947 22.6203C67.942 22.7551 67.8694 22.9418 67.7346 23.8649C67.5064 25.5554 67.5687 25.7317 68.4295 25.8043C69.4874 25.908 69.7363 25.5657 69.8503 23.9063C69.9229 22.8796 69.9229 22.8485 69.6844 22.6825C69.4251 22.5062 68.6577 22.4647 68.2947 22.6203ZM69.3629 23.0248C69.477 23.0974 69.4874 23.2841 69.3836 24.1138C69.311 24.6946 69.1866 25.182 69.1036 25.2754C68.9169 25.462 68.305 25.462 68.1598 25.2857C68.0043 25.099 68.2221 23.2737 68.4191 23.0766C68.5851 22.9211 69.1451 22.8796 69.3629 23.0248Z" fill="#373435"/>
  <path d="M70.6599 22.6194C70.3176 22.7646 70.2139 23.0343 70.0895 24.2788C69.9443 25.7101 69.9858 25.7827 70.9918 25.7827C71.9044 25.7827 72.0289 25.6375 72.1845 24.4862C72.2467 23.9988 72.3193 23.4802 72.3504 23.3247C72.4437 22.8683 72.0185 22.5157 71.3859 22.5261C71.1162 22.5261 70.7843 22.5676 70.6599 22.6194ZM71.7592 23.0239C71.9874 23.1691 71.7178 25.15 71.4377 25.3263C71.2303 25.4611 70.6703 25.4404 70.5458 25.2848C70.4006 25.1085 70.6599 23.1484 70.8466 23.0239C71.0333 22.9098 71.5726 22.9098 71.7592 23.0239Z" fill="#373435"/>
  <path d="M72.7652 22.6407C72.703 22.8378 72.3918 25.3269 72.3918 25.5965C72.3918 25.7625 72.4541 25.8351 72.5993 25.8351C72.7963 25.8351 72.8689 25.6484 72.9312 24.8498C72.9623 24.5802 73.0141 24.5387 73.2838 24.5076C73.6053 24.4764 73.626 24.4972 73.8438 25.1506C74.0201 25.6795 74.1135 25.8351 74.269 25.8351C74.518 25.8351 74.5283 25.5758 74.2898 24.995C74.1238 24.5802 74.1238 24.5594 74.3416 24.3935C74.6009 24.1964 74.7772 23.7608 74.7772 23.3149C74.7772 22.8896 74.6839 22.7652 74.3313 22.6304C73.9164 22.4748 72.8067 22.4852 72.7652 22.6407ZM74.0927 22.9934C74.1964 23.0348 74.2587 23.18 74.2587 23.3978C74.2587 23.9994 74.1861 24.072 73.5742 24.072H73.0141L73.0763 23.626C73.1075 23.3875 73.1489 23.1282 73.1801 23.0556C73.2215 22.9311 73.8023 22.8793 74.0927 22.9934Z" fill="#373435"/>
  <path d="M75.1498 22.6407C75.0979 22.817 74.7764 25.4306 74.7764 25.6588C74.7764 25.7625 74.8594 25.8351 74.9735 25.8351C75.1913 25.8351 75.295 25.5758 75.295 25.0054C75.3054 24.3209 75.4402 24.3105 75.9069 24.9328C76.1351 25.2543 76.3321 25.5551 76.3321 25.6173C76.3321 25.7832 76.6433 25.8351 77.7322 25.8351C78.6345 25.8351 78.8108 25.804 78.8627 25.6588C78.9664 25.3995 78.7279 25.3061 78.0641 25.3373L77.4522 25.3684L77.5144 25.0676C77.5456 24.9017 77.5767 24.6631 77.5767 24.5283C77.5767 24.2898 77.6078 24.2794 78.2508 24.2794C78.8523 24.2794 78.9249 24.2587 78.9249 24.072C78.9249 23.8853 78.8523 23.8645 78.3027 23.8645C77.7219 23.8645 77.6804 23.8438 77.6804 23.626C77.6908 22.9934 77.7634 22.9311 78.4686 22.9311C79.0598 22.9311 79.1324 22.9104 79.1324 22.7237C79.1324 22.537 79.0598 22.5163 78.2612 22.5163H77.39L77.3278 22.8896C77.2863 23.0867 77.1929 23.7712 77.11 24.3935C77.0374 25.0261 76.9544 25.5551 76.9337 25.5758C76.9129 25.5965 76.6744 25.2854 76.3943 24.8913C75.8343 24.072 75.8136 24.1964 76.664 23.2734C76.9337 22.983 77.1618 22.6822 77.1618 22.6304C77.1618 22.34 76.7573 22.5785 76.1247 23.2526L75.4298 23.989L75.5128 23.4393C75.6372 22.5681 75.6269 22.5163 75.3987 22.5163C75.2846 22.5163 75.1705 22.5785 75.1498 22.6407Z" fill="#373435"/>
  <path d="M79.4346 22.6924C79.4346 22.7962 79.4138 22.9725 79.3931 23.0866C79.2686 23.7607 79.1338 24.9845 79.1338 25.3786V25.8453L80.0465 25.8142C80.8658 25.7831 80.9488 25.7623 80.9488 25.5757C80.9488 25.389 80.8762 25.3682 80.2435 25.3682C79.5901 25.3682 79.5383 25.3579 79.5901 25.1608C79.6212 25.0467 79.6524 24.7978 79.6524 24.6111V24.2792H80.3265C80.928 24.2792 81.0006 24.2585 81.0006 24.0718C81.0006 23.8851 80.928 23.8644 80.368 23.8644H79.7353L79.7975 23.5429C79.8287 23.3666 79.8598 23.1488 79.8598 23.0762C79.8598 22.9725 80.0257 22.931 80.5235 22.931C81.1458 22.931 81.3118 22.848 81.3118 22.5576C81.3118 22.5369 80.8969 22.5161 80.3783 22.5161C79.559 22.5161 79.4449 22.5369 79.4346 22.6924Z" fill="#373435"/>
  <path d="M63.2853 35.1387L63.3164 42.2742L63.3372 35.2425L63.3683 28.2211H65.1314C66.2411 28.2211 66.8945 28.1796 66.8945 28.1174C66.8945 28.0552 66.2204 28.0137 65.0796 28.0137H63.2646L63.2853 35.1387Z" fill="#373435"/>
  <path d="M70.9189 28.1376C70.836 28.2102 70.587 28.5732 70.3692 28.9466C69.8714 29.797 69.8818 29.7763 69.944 29.7763C69.9648 29.7763 70.1929 29.4237 70.4418 28.9984L70.8878 28.2206H72.8376C74.3726 28.2206 74.777 28.2517 74.7148 28.3451C74.6629 28.4384 74.6941 28.4384 74.8081 28.3347C74.9015 28.2621 74.9845 28.1584 74.9845 28.1065C74.9845 27.951 71.116 27.9924 70.9189 28.1376Z" fill="#373435"/>
  <path d="M74.2182 29.1018C74.1249 29.247 73.9797 29.4856 73.8863 29.6412L73.7204 29.9315L73.9278 29.6826C74.1767 29.3819 74.4982 28.8426 74.436 28.8426C74.4049 28.8426 74.3116 28.9567 74.2182 29.1018Z" fill="#373435"/>
  <path d="M73.1589 30.7306C73.1174 30.8032 73.0137 30.9795 72.9307 31.1247C72.7855 31.3736 72.7959 31.3736 72.9619 31.1765C73.1693 30.9276 73.3456 30.6061 73.2834 30.6061C73.2522 30.6061 73.2004 30.6684 73.1589 30.7306Z" fill="#373435"/>
  <path d="M68.2539 32.5045L67.6213 33.5727L67.642 35.0765L67.6628 36.57L67.7146 35.0143L67.7768 33.4586L68.3369 32.5252C69.011 31.4051 68.9903 31.4362 68.9384 31.4362C68.9073 31.4362 68.6065 31.9133 68.2539 32.5045Z" fill="#373435"/>
  <path d="M72.0698 32.4416C71.7171 33.0016 71.2608 33.7069 71.0638 34.0076C70.8667 34.3084 70.7215 34.5781 70.7526 34.5988C70.7734 34.6195 71.1467 34.0699 71.5927 33.375C72.0283 32.6801 72.4846 31.9541 72.6091 31.7674C72.7232 31.5911 72.8061 31.4356 72.775 31.4356C72.7439 31.4356 72.4328 31.8919 72.0698 32.4416Z" fill="#373435"/>
  <path d="M72.9628 38.5409C73.1184 38.8209 73.2947 39.1009 73.3569 39.1631C73.4192 39.215 73.3362 39.0283 73.1703 38.7483C73.0147 38.4579 72.8384 38.1779 72.7762 38.126C72.7139 38.0638 72.7969 38.2505 72.9628 38.5409Z" fill="#373435"/>
  <path d="M70.4107 41.3397C70.587 41.6819 70.7322 41.8686 70.7322 41.7545C70.7322 41.6923 70.6285 41.5367 70.5144 41.3915C70.3795 41.2152 70.3381 41.2049 70.4107 41.3397Z" fill="#373435"/>
  <path d="M4.37644 45.25C4.32459 45.3848 4.20013 46.2249 4.10679 47.1376C3.95122 48.4547 3.94085 48.797 4.05494 48.8592C4.32459 49.0355 4.4283 48.8385 4.5009 48.0503C4.54238 47.6147 4.58387 47.1583 4.59424 47.0442C4.62535 46.7746 4.93649 46.5879 5.35134 46.5775C5.76619 46.5775 5.79731 46.6916 5.65211 47.8739C5.51728 48.8696 5.52765 48.9629 5.75582 48.9629C5.97362 48.9629 6.02547 48.8281 6.1603 47.791C6.31587 46.6916 6.24327 46.339 5.81805 46.1627C5.50691 46.0382 4.97798 46.1212 4.84315 46.3079C4.80167 46.3701 4.77055 46.1212 4.79129 45.7478C4.82241 45.1774 4.79129 45.0737 4.6461 45.0426C4.53201 45.0218 4.4283 45.0944 4.37644 45.25Z" fill="#373435"/>
  <path d="M16.6674 45.0934C16.6363 45.1453 16.5948 45.3112 16.5845 45.4876C16.5534 45.7365 16.5845 45.8091 16.7608 45.8298C16.9371 45.8505 16.9993 45.7883 17.0512 45.529C17.0823 45.3527 17.1134 45.166 17.1134 45.1142C17.1134 45.0001 16.7297 44.9897 16.6674 45.0934Z" fill="#373435"/>
  <path d="M22.7769 45.1971C22.7457 45.3008 22.6732 45.8298 22.6109 46.3691C22.5487 46.898 22.4554 47.6447 22.4035 48.0285C22.279 48.8789 22.279 48.8271 22.4346 48.8893C22.7043 48.993 22.8391 48.7856 22.8909 48.1737C22.9221 47.8418 22.9635 47.5514 22.9739 47.5306C22.9843 47.5203 23.2228 47.821 23.4925 48.2255C23.814 48.7026 24.0422 48.9308 24.1562 48.91C24.2496 48.8893 24.3637 48.8685 24.4052 48.8685C24.4466 48.8582 24.2703 48.547 24.011 48.1737C23.7518 47.7899 23.5443 47.4477 23.5443 47.4166C23.5443 47.3751 23.7829 47.0951 24.0836 46.8047C24.5089 46.3794 24.5815 46.255 24.4466 46.2031C24.3326 46.1616 24.0836 46.3068 23.6792 46.6595C23.2851 47.0121 23.0569 47.1469 23.005 47.0639C22.9635 47.0017 22.9739 46.9187 23.0154 46.8876C23.0984 46.8358 23.1191 46.5972 23.1606 45.5912C23.1813 45.1867 23.1502 45.0727 23.005 45.0415C22.9117 45.0208 22.808 45.0934 22.7769 45.1971Z" fill="#373435"/>
  <path d="M32.7326 45.1782C32.7015 45.2715 32.6704 45.4686 32.6704 45.6138C32.6704 45.8212 32.7119 45.8627 32.9089 45.8316C33.0956 45.8108 33.1371 45.7382 33.1371 45.4374C33.1371 45.0433 32.8571 44.867 32.7326 45.1782Z" fill="#373435"/>
  <path d="M51.3689 45.1036C51.2963 45.1555 51.1615 45.9126 51.0371 46.9912C50.8193 48.8788 50.84 49.0655 51.2549 48.8477C51.3793 48.7854 51.5141 48.7854 51.6386 48.858C51.929 49.0136 52.3957 48.9825 52.655 48.8062C53.0698 48.5158 53.3498 46.7008 53.0491 46.3171C52.852 46.0785 52.0742 46.0371 51.8045 46.2652C51.6593 46.3897 51.649 46.3378 51.7112 45.7155C51.7838 45.0103 51.7112 44.8858 51.3689 45.1036ZM52.6031 47.3542C52.5616 48.2669 52.4061 48.5365 51.9497 48.4847C51.4312 48.4224 51.3689 48.3084 51.4519 47.6965C51.4934 47.3957 51.5349 47.0742 51.5349 46.9808C51.5452 46.763 51.929 46.5764 52.3231 46.6075L52.6342 46.6282L52.6031 47.3542Z" fill="#373435"/>
  <path d="M0.488004 45.1883C0.446519 45.2298 0.415405 45.3543 0.415405 45.458C0.415405 45.6136 0.498375 45.6447 0.882112 45.6447C1.19325 45.6447 1.34882 45.6862 1.34882 45.7795C1.34882 45.9247 1.06879 48.113 0.985824 48.5797C0.944339 48.8494 0.965082 48.8701 1.22436 48.839C1.47327 48.8079 1.50439 48.7561 1.5355 48.3931C1.57699 47.6982 1.63921 47.0448 1.67033 46.9929C1.6807 46.9618 1.70144 46.827 1.71181 46.6818C1.73256 46.5366 1.7533 46.4018 1.76367 46.3707C1.78441 46.3396 1.79478 46.1736 1.80515 46.0077C1.8259 45.7173 1.84664 45.6965 2.33409 45.6447C2.76968 45.6032 2.85265 45.5617 2.85265 45.3854C2.85265 45.1883 2.76968 45.178 1.70144 45.1469C1.07917 45.1365 0.529489 45.1572 0.488004 45.1883Z" fill="#373435"/>
  <path d="M12.7878 45.187C12.7152 45.2182 12.653 45.3322 12.653 45.4463C12.653 45.6123 12.7256 45.6434 13.1197 45.6434C13.6694 45.6434 13.659 45.6019 13.4309 47.1368C13.3479 47.7073 13.2753 48.3503 13.2753 48.5681C13.2753 48.9311 13.3064 48.9726 13.5035 48.9414C13.7213 48.9103 13.7524 48.817 13.9183 47.4584C14.0116 46.6598 14.0946 45.9234 14.0946 45.8197C14.105 45.6745 14.1983 45.6434 14.6339 45.6434C15.1214 45.6434 15.1525 45.6226 15.1214 45.4048C15.0903 45.187 15.0488 45.1767 14.0013 45.1559C13.3997 45.1456 12.8501 45.1663 12.7878 45.187Z" fill="#373435"/>
  <path d="M43.9213 45.3532C43.9006 45.488 43.7969 46.2244 43.7139 46.9918C43.6205 47.7593 43.5272 48.4957 43.4961 48.6201C43.4546 48.8587 43.465 48.8587 44.4814 48.8587C45.0518 48.8587 45.5392 48.8172 45.5807 48.7653C45.6844 48.5786 45.2074 48.4231 44.6266 48.4646L44.0561 48.4957L44.1184 47.8215C44.1599 47.4482 44.2325 46.7637 44.3051 46.297C44.3673 45.8303 44.388 45.3843 44.3569 45.291C44.2636 45.042 43.9835 45.0939 43.9213 45.3532Z" fill="#373435"/>
  <path d="M8.58751 46.1635C8.4838 46.2257 8.40083 46.2465 8.40083 46.2153C8.40083 46.1842 8.29712 46.2465 8.17266 46.3605C7.93412 46.5887 7.7993 47.211 7.78892 48.0925C7.77855 48.777 7.93412 48.9119 8.72234 48.9119C9.39647 48.9119 9.71798 48.7044 9.76984 48.2481C9.82169 47.8644 9.44833 47.8644 9.3135 48.2481C9.22016 48.5178 9.1683 48.5489 8.76382 48.5489C8.266 48.5489 8.21415 48.4866 8.27637 47.9681L8.31786 47.6258L9.11645 47.5947L9.90466 47.5636L9.93578 47.0347C9.95652 46.6198 9.9254 46.4746 9.75946 46.3294C9.51055 46.1116 8.83642 46.0079 8.58751 46.1635ZM9.47944 46.7339C9.61427 47.0865 9.40684 47.2525 8.85716 47.2525L8.32823 47.2628L8.4112 46.9413C8.46306 46.7754 8.50454 46.6198 8.50454 46.6094C8.50454 46.5887 8.71197 46.5783 8.96088 46.5783C9.27202 46.5783 9.43796 46.6302 9.47944 46.7339Z" fill="#373435"/>
  <path d="M19.6529 46.204C19.3729 46.4011 19.2795 46.4114 19.1862 46.2662C19.0721 46.0899 18.678 46.2351 18.6884 46.4529C18.6884 46.5463 18.6573 46.8366 18.6261 47.0959C18.595 47.3552 18.5432 47.7908 18.5121 48.0708C18.4809 48.3509 18.4291 48.6101 18.4083 48.6516C18.3772 48.6931 18.4187 48.7864 18.5017 48.8487C18.7713 49.0768 18.958 48.7138 19.0306 47.7701C19.1136 46.7744 19.2069 46.65 19.8396 46.6396L20.2752 46.6292V47.0959C20.2752 47.3552 20.2337 47.853 20.1922 48.2057C20.1196 48.8176 20.1196 48.859 20.3167 48.859C20.4826 48.859 20.5344 48.7657 20.5863 48.3716C20.6174 48.0916 20.69 47.6456 20.7522 47.376C20.8871 46.6915 20.8767 46.6603 20.5863 46.3388C20.2959 46.0277 19.964 45.9862 19.6529 46.204Z" fill="#373435"/>
  <path d="M26.4689 46.2245C26.0541 46.4319 25.9711 46.5771 25.8881 47.2513C25.7429 48.3091 25.774 48.5684 26.0437 48.7862C26.2511 48.9522 26.3963 48.9729 26.8526 48.9314C27.1534 48.9003 27.4853 48.7966 27.589 48.7032C27.7861 48.5269 27.9313 48.0291 27.7861 48.0291C27.7446 48.0291 27.6409 47.998 27.5475 47.9669C27.4334 47.9254 27.3816 47.9669 27.3816 48.1017C27.3816 48.4025 27.1742 48.5477 26.7489 48.5477C26.3133 48.5477 26.2096 48.4025 26.3133 47.9254L26.3756 47.6143H27.1223C27.8172 47.6143 27.8794 47.5935 27.9416 47.3757C28.0868 46.8157 27.9313 46.2764 27.5786 46.1934C27.0393 46.0689 26.78 46.0689 26.4689 46.2245ZM27.4853 46.909V47.2513H26.9149C26.3652 47.2513 26.3548 47.2409 26.4171 46.992C26.5104 46.5979 26.5311 46.5771 27.029 46.5771C27.4749 46.5771 27.4853 46.5875 27.4853 46.909Z" fill="#373435"/>
  <path d="M30.5957 46.1719C30.4608 46.2341 30.3053 46.3275 30.2638 46.4001C30.2119 46.4831 30.1808 46.4623 30.1808 46.3379C30.1808 46.1304 29.9215 46.0993 29.7971 46.286C29.6415 46.5349 29.3822 48.7647 29.4963 48.8373C29.8593 49.0655 29.9319 48.9203 30.0356 47.7276C30.1082 47.0224 30.1289 46.9498 30.4297 46.7734C30.606 46.6697 30.8342 46.5764 30.9379 46.5764C31.0727 46.5764 31.1142 46.5142 31.0935 46.3482C31.052 46.0786 30.9379 46.0371 30.5957 46.1719Z" fill="#373435"/>
  <path d="M35.8844 46.1634C35.8844 46.2152 35.8014 46.2671 35.6977 46.2671C35.594 46.2671 35.4592 46.3189 35.3866 46.3915C35.2932 46.4849 35.2621 46.4745 35.2621 46.3397C35.2621 46.1426 35.1792 46.1219 34.9717 46.2567C34.8369 46.3397 34.5361 47.9576 34.5361 48.6214C34.5361 48.9118 34.5672 48.9532 34.7747 48.9221C34.9717 48.891 35.0132 48.808 35.0754 48.1754C35.2103 46.9516 35.2414 46.8271 35.5318 46.7027C35.8325 46.5575 36.2681 46.5367 36.3407 46.6612C36.3615 46.7027 36.3304 47.2109 36.2578 47.802C36.1333 48.891 36.1644 49.0362 36.5274 48.8495C36.6622 48.7769 36.7141 48.528 36.7867 47.802C36.8904 46.6093 36.8697 46.4641 36.5793 46.2463C36.3304 46.0493 35.8844 45.9974 35.8844 46.1634Z" fill="#373435"/>
  <path d="M39.172 46.1315C39.1202 46.173 39.0476 46.2145 39.0061 46.2145C38.8816 46.2145 38.5498 46.5878 38.6224 46.6501C38.6535 46.6812 38.6327 46.7641 38.5809 46.8367C38.529 46.899 38.4564 47.3346 38.4253 47.7909C38.3631 48.7243 38.4149 48.828 39.0268 48.9317C39.2446 48.9628 39.4935 48.9214 39.701 48.8176C40.0225 48.6517 40.0432 48.6828 39.8876 49.1184C39.8358 49.2325 39.7839 49.3777 39.7736 49.4503C39.7424 49.5229 39.4728 49.5851 39.0891 49.6059C38.5705 49.6266 38.4357 49.6681 38.4149 49.8133C38.3942 49.9689 38.4772 50 38.9957 50C39.7113 50 40.0847 49.8755 40.2299 49.5955C40.3544 49.3673 40.7796 46.2559 40.6966 46.173C40.6655 46.1419 40.5514 46.173 40.4373 46.2456C40.2921 46.3389 40.178 46.3493 40.1054 46.2767C39.9291 46.1419 39.2654 46.0278 39.172 46.1315ZM39.981 46.6812C40.178 46.7538 40.2403 46.8367 40.1988 46.9716C40.1573 47.0753 40.1158 47.4072 40.0951 47.7079C40.0743 47.9983 40.0328 48.268 40.0121 48.2887C39.981 48.3198 39.7424 48.3821 39.4728 48.4339C39.0787 48.5065 38.9646 48.4961 38.9231 48.3717C38.8401 48.1539 38.9853 46.8678 39.1202 46.7123C39.255 46.5463 39.6076 46.536 39.981 46.6812Z" fill="#373435"/>
  <path d="M47.7603 46.1521C47.7292 46.2143 47.6566 46.2454 47.6151 46.2247C47.3662 46.0691 46.8684 48.133 47.0447 48.5997C47.1899 48.9731 47.8536 49.0768 48.3618 48.8071C48.5174 48.7242 48.6211 48.7034 48.59 48.7449C48.5174 48.8694 48.7871 48.9627 48.9426 48.8694C49.0774 48.776 49.4404 46.3077 49.3367 46.1936C49.2849 46.1521 49.1604 46.1728 49.0463 46.2454C48.9011 46.3388 48.7871 46.3492 48.7145 46.2766C48.507 46.121 47.8433 46.0276 47.7603 46.1521ZM48.59 46.7018C48.7559 46.7744 48.8389 46.8781 48.8078 46.9818C48.7871 47.0751 48.7352 47.4174 48.6937 47.7389C48.6315 48.2575 48.6004 48.3301 48.3515 48.413C48.1959 48.4545 47.9573 48.496 47.8122 48.496C47.5218 48.496 47.501 48.3715 47.6255 47.3137C47.7188 46.5877 47.9781 46.4218 48.59 46.7018Z" fill="#373435"/>
  <path d="M16.4809 46.2867C16.4809 46.3593 16.4602 46.4941 16.4498 46.5771C16.2942 47.3964 16.1594 48.6721 16.2112 48.7965C16.2424 48.8795 16.3564 48.921 16.4705 48.8899C16.6365 48.8484 16.6883 48.6617 16.8128 47.6868C16.8957 47.0438 16.958 46.4526 16.958 46.3697C16.958 46.1726 16.4913 46.0896 16.4809 46.2867Z" fill="#373435"/>
  <path d="M32.6272 46.2448C32.5961 46.2966 32.5339 46.7011 32.4717 47.1575C32.4198 47.6034 32.3368 48.1635 32.3057 48.402C32.2331 48.8376 32.3783 49.0347 32.648 48.8687C32.7724 48.7961 33.1147 46.4004 33.0213 46.2552C32.9487 46.1411 32.6998 46.1307 32.6272 46.2448Z" fill="#373435"/>
  <path d="M40.2414 0.0938206C40.2414 0.24939 39.2458 1.15169 39.0798 1.15169C39.0383 1.15169 38.9968 1.33837 38.9968 1.55617C38.9968 1.93991 39.0176 1.97102 39.3391 2.00213L39.671 2.04362L39.3391 2.24067C39.1317 2.36513 38.9968 2.53107 38.9968 2.65552C38.9968 2.77998 38.8724 2.94592 38.7064 3.04963C37.9805 3.46448 37.4412 4.26307 37.2752 5.14462L37.213 5.50762H34.9417H32.6704V6.21286V6.91811L31.9236 7.2085C30.5443 7.74781 29.5383 8.62937 28.8952 9.85318C27.7025 12.1141 28.0966 14.6758 29.9116 16.5323C30.8969 17.5383 31.9548 18.0465 33.4171 18.2124C34.0498 18.2954 35.2839 18.1294 35.8544 17.8909C36.0514 17.8079 36.2485 17.7664 36.2899 17.7872C36.3418 17.8183 36.4351 18.0568 36.5077 18.3058C36.5803 18.565 36.85 19.0421 37.1196 19.374C38.9139 21.5934 41.9215 21.7801 43.8921 19.7785C44.4625 19.1873 45.0122 18.2746 45.0122 17.8909C45.0122 17.7768 45.064 17.7457 45.1989 17.7976C46.3293 18.2746 48.051 18.3472 49.0984 17.9635C51.5253 17.0923 53.0914 14.9351 53.1018 12.4667C53.1018 10.7036 52.1061 8.84716 50.6127 7.83078C50.1252 7.4989 48.8807 6.95959 48.6006 6.95959C48.4658 6.95959 48.4347 6.82477 48.4347 6.23361V5.50762H46.1012C44.7218 5.50762 43.7676 5.46613 43.7676 5.41428C43.7676 5.36242 43.7158 5.18611 43.6432 5.02017C43.5809 4.8646 43.5395 4.68829 43.5395 4.6468C43.6121 4.36678 42.6579 3.24668 42.1082 2.96666C41.8904 2.85258 41.7971 2.72812 41.7971 2.56218C41.7971 2.42735 41.7141 2.28216 41.6208 2.24067C41.4445 2.17844 41.4445 2.16807 41.6208 2.07473C41.7349 2.00213 41.7971 1.84656 41.7971 1.56654C41.7971 1.22429 41.7452 1.14132 41.4445 0.954636C41.2474 0.830179 40.9674 0.570898 40.8222 0.373844C40.5629 0.0419636 40.2414 -0.113604 40.2414 0.0938206ZM30.3887 12.1452C30.3887 12.3319 30.5028 12.4045 30.7309 12.363C30.7828 12.3526 30.7828 12.446 30.7517 12.5704C30.6998 12.7156 30.7309 12.8297 30.8139 12.8816C30.928 12.9542 30.9073 13.006 30.7309 13.1305C30.5961 13.2238 30.5235 13.3587 30.5546 13.4416C30.6065 13.5661 30.5546 13.5868 30.2954 13.535C30.0879 13.4935 29.9738 13.5039 29.9738 13.5868C29.9738 13.6491 29.9324 13.7009 29.8701 13.7009C29.8183 13.7009 29.7768 13.6491 29.7975 13.5765C29.8079 13.5039 29.7146 13.4001 29.5901 13.3483C29.4242 13.2653 29.3723 13.1824 29.4138 13.0475C29.4449 12.9438 29.4138 12.7986 29.3516 12.7156C29.2479 12.5912 29.2582 12.5601 29.3931 12.5601C29.476 12.5601 29.5797 12.446 29.6212 12.2904C29.6731 12.1037 29.7249 12.0623 29.7975 12.1349C29.9635 12.3008 30.1813 12.2697 30.1813 12.0934C30.1813 12.0104 30.2331 11.9378 30.285 11.9378C30.3472 11.9378 30.3887 12.0311 30.3887 12.1452ZM31.374 13.5972C31.4569 13.8461 31.8925 13.8772 31.9859 13.6491C32.0688 13.4313 32.3904 13.5765 32.3281 13.815C32.2659 14.0535 32.5459 14.458 32.7222 14.3854C32.9089 14.3128 33.0126 14.6032 32.8363 14.7069C32.6081 14.8418 32.5252 15.2462 32.7119 15.3188C32.9504 15.4122 32.7326 15.7752 32.4837 15.7026C32.2763 15.6507 32.0896 15.827 32.0377 16.1278C31.9859 16.4078 31.7681 16.4493 31.6851 16.2004C31.6125 15.9411 31.208 15.91 31.011 16.1278C30.8243 16.3663 30.5858 16.2211 30.6998 15.9307C30.8035 15.6611 30.6895 15.5159 30.3368 15.4433C30.0879 15.4018 29.9842 15.0492 30.2228 15.0492C30.4094 15.0492 30.4613 14.4891 30.285 14.375C30.1087 14.261 30.285 14.0535 30.5546 14.0639C30.8243 14.0639 30.9384 13.9498 31.0525 13.5661C31.1251 13.3275 31.291 13.3379 31.374 13.5972ZM34.309 15.3707C34.4127 15.5366 34.5165 15.5677 34.7031 15.5263C34.9521 15.464 34.9624 15.4744 34.9002 15.8167C34.838 16.1174 34.8587 16.1796 35.0454 16.2419C35.2632 16.3041 35.3462 16.5012 35.1698 16.5012C34.9521 16.5012 34.7446 16.833 34.8069 17.0819C34.8691 17.3412 34.7654 17.4138 34.5787 17.2271C34.4439 17.0923 34.0186 17.2168 34.0186 17.3931C34.0186 17.4761 33.9772 17.5383 33.9149 17.5383C33.8631 17.5383 33.8112 17.4657 33.8112 17.3827C33.8112 17.1857 33.4586 16.999 33.2408 17.0923C33.0852 17.1442 33.0749 17.1027 33.1371 16.833C33.1889 16.5738 33.1578 16.4908 32.9919 16.3974C32.7119 16.2522 32.7119 16.0863 32.9815 16.0863C33.106 16.0863 33.1993 16.0137 33.1993 15.8996C33.2201 15.7337 33.2408 15.5263 33.2823 15.3085C33.2823 15.2566 33.3445 15.267 33.4171 15.3396C33.5934 15.5159 33.8838 15.4951 33.9564 15.3085C34.0394 15.0907 34.1535 15.1114 34.309 15.3707Z" fill="#703364"/>
  <path d="M29.6635 12.5585C29.4353 12.9734 29.8398 13.4816 30.2858 13.3364C30.5347 13.2638 30.6695 12.8074 30.5243 12.5689C30.3584 12.2992 29.8087 12.2992 29.6635 12.5585Z" fill="#703364"/>
  <path d="M30.9381 14.3851C30.7307 14.5926 30.6892 14.7066 30.7411 14.9763C30.8137 15.3808 31.1456 15.6712 31.5189 15.6712C31.8716 15.6712 31.996 15.5778 32.1931 15.2148C32.6079 14.4059 31.5915 13.7317 30.9381 14.3851Z" fill="#703364"/>
  <path d="M33.5838 15.7839C33.366 15.9084 33.3245 16.5929 33.5216 16.7899C33.729 16.9974 34.4135 16.9455 34.538 16.7173C34.6935 16.4166 34.6624 16.0225 34.4757 15.8358C34.2994 15.6491 33.8535 15.6284 33.5838 15.7839Z" fill="#703364"/>
  <path d="M46.4119 20.5432C45.2192 21.1343 45.1259 22.8871 46.246 23.6234C46.9201 24.0798 48.1232 23.8827 48.621 23.2397C49.1292 22.5759 49.1396 21.767 48.6417 21.0825C48.1128 20.3565 47.2209 20.1387 46.4119 20.5432Z" fill="#703364"/>
  <path d="M48.062 25.0463C47.7716 25.3367 47.7094 25.4819 47.7094 25.8242C47.7094 26.6331 48.1761 27.131 48.8917 27.1102C49.7317 27.0895 50.3333 26.3116 50.0947 25.5649C49.9184 25.036 49.4414 24.6937 48.8813 24.6937C48.4872 24.6937 48.3627 24.7456 48.062 25.0463Z" fill="#703364"/>
  <path d="M26.966 27.8147C26.7689 27.9391 26.4682 28.1465 26.3126 28.2814C25.9807 28.5614 25.8252 28.5925 25.8252 28.3955C25.8252 28.3332 25.6696 28.1673 25.4829 28.0325C25.2236 27.8665 24.9851 27.8043 24.5391 27.8043C24.0206 27.8043 23.9065 27.8458 23.6368 28.1051C23.3361 28.4058 23.3361 28.4162 23.3361 29.7022V30.9986L23.6576 31.2683C23.9272 31.4965 24.0724 31.5379 24.6325 31.5379C25.2547 31.5379 25.3273 31.5172 25.6489 31.1853L26.0015 30.8327L26.4371 31.289L26.8623 31.7454V36.7443C26.8623 39.5031 26.9038 41.8159 26.9453 41.8885C27.0075 41.9818 27.329 42.0129 28.1691 41.9922L29.2995 41.9611L29.3306 36.8688L29.3514 31.7869L29.8285 31.2787L30.2952 30.7705L30.9382 30.9053C31.2908 30.9779 31.9235 31.2268 32.3487 31.455C33.0021 31.8076 33.1473 31.8491 33.3547 31.7557C33.7177 31.6002 33.6762 31.1127 33.2406 30.2104C32.4005 28.4577 30.8137 27.5969 28.418 27.5969C27.4949 27.5969 27.2771 27.628 26.966 27.8147Z" fill="#703364"/>
  <path d="M2.93589 28.0841L0.208252 28.1152V35.1158V42.1164H2.02322H3.83819V39.6791V37.2419H4.38787H4.92717L6.00579 39.3473C6.60732 40.4985 7.16737 41.5771 7.26071 41.7534L7.43702 42.0645L9.31422 42.0957C10.3513 42.106 11.2018 42.0957 11.2018 42.0542C11.2018 42.0127 10.9425 41.4941 10.621 40.8822C9.56313 38.9013 9.15865 38.1338 8.72305 37.3041C8.48452 36.8582 8.29783 36.4848 8.31858 36.4744C8.33932 36.4537 8.51563 36.35 8.73343 36.2255C9.26236 35.8936 9.83278 35.2402 10.1543 34.5557C10.4032 34.0268 10.4239 33.8609 10.4239 32.6682C10.4239 31.3821 10.4239 31.3718 10.0402 30.5836C9.27273 29.0279 8.01781 28.2293 6.11987 28.0944C5.86059 28.0737 4.42935 28.0737 2.93589 28.0841ZM5.80873 31.2577C6.44138 31.4236 6.74214 31.88 6.74214 32.6474C6.74214 33.7468 6.34804 34.0268 4.79235 34.0268H3.83819V32.5748V31.1229L4.59529 31.1332C4.99977 31.1332 5.54945 31.1955 5.80873 31.2577Z" fill="#703364"/>
  <path d="M12.6958 28.1048C12.6751 28.1256 12.6544 31.2888 12.6544 35.1365V42.1164H17.3007H21.9366L21.9159 40.5918L21.8952 39.0569L19.0638 39.005L16.2324 38.9532V37.7294V36.5159H18.5971H20.9514V34.9602V33.4045H18.5971H16.2324V32.2637V31.1125L19.0327 31.1229C20.578 31.1332 21.8433 31.1125 21.864 31.0814C21.8744 31.0503 21.8848 30.3658 21.8848 29.5672V28.1152L17.3111 28.0945C14.8012 28.0737 12.7166 28.0841 12.6958 28.1048Z" fill="#703364"/>
  <path d="M34.7451 35.0847V42.1164H36.5082H38.2713V39.3162V36.5159H39.9307H41.5901V39.3162V42.1164H43.4051H45.2201V35.1158V28.1256L43.4051 28.0945L41.5901 28.0633V30.7288V33.4045H39.9307H38.2713V30.7288V28.0633H36.5082H34.7451V35.0847Z" fill="#703364"/>
  <path d="M47.6667 28.1878C47.5733 28.5093 47.3037 34.4313 47.1274 39.9592L47.0651 42.1164H48.9008H50.7469L50.6743 38.5798C50.5706 33.4149 50.3113 28.3848 50.135 28.1048C50.1039 28.053 49.5542 28.0115 48.9008 28.0115C47.8637 28.0115 47.7185 28.0322 47.6667 28.1878Z" fill="#703364"/>
  <path d="M76.9772 32.9591C77.0083 36.5164 77.0705 38.404 77.2157 40.0219L77.4024 42.2206H78.7299H80.0574L80.1093 41.8784C80.1404 41.702 80.2545 40.1464 80.3789 38.4351C80.5552 35.946 80.5967 34.6081 80.5656 31.7456L80.5345 28.1676L78.7403 28.1364L76.9357 28.1157L76.9772 32.9591Z" fill="#703364"/>
  <path d="M63.3687 35.1677V42.1164H65.08H66.7912V35.1677V28.2189H65.08H63.3687V35.1677Z" fill="#703364"/>
  <path d="M69.4581 30.6769C68.6387 32.0355 67.9128 33.249 67.8505 33.3734C67.7676 33.5083 67.7261 34.1305 67.7261 35.0017V36.4018L69.3647 39.2539L70.993 42.1164H73.0362H75.0793L74.1874 40.6333C73.6999 39.8243 73.1814 38.9532 73.0362 38.6939C72.9013 38.4346 72.725 38.1649 72.6732 38.082C72.6109 38.0094 72.5072 37.8642 72.445 37.7605C72.3931 37.6568 71.9575 36.91 71.4805 36.1114L70.6197 34.6698L71.1071 33.9024C71.3768 33.4875 71.802 32.8134 72.0613 32.4193C72.3205 32.0148 72.6835 31.4547 72.8598 31.1747C73.0465 30.8843 73.5547 30.1065 73.9799 29.4323L74.7682 28.2189H72.8598H70.9515L69.4581 30.6769Z" fill="#703364"/>
  <path d="M77.4426 44.9797C77.4011 45.0212 77.37 45.8924 77.37 46.9088V48.7549H78.7183H80.0665L80.0458 46.8569L80.0147 44.9693L78.7597 44.9382C78.0752 44.9279 77.4841 44.9486 77.4426 44.9797Z" fill="#703364"/>
</svg>